<?xml version="1.0" standalone="no"?>
<!DOCTYPE svg PUBLIC "-//W3C//DTD SVG 20010904//EN"
 "http://www.w3.org/TR/2001/REC-SVG-20010904/DTD/svg10.dtd">
<svg version="1.0" xmlns="http://www.w3.org/2000/svg"
 width="405.000000pt" height="405.000000pt" viewBox="0 0 405.000000 405.000000"
 preserveAspectRatio="xMidYMid meet">
<metadata>
Created by potrace 1.14, written by Peter Selinger 2001-2017
</metadata>
<g transform="translate(0.000000,405.000000) scale(0.100000,-0.100000)"
fill="#000000" stroke="none">
<path d="M1995 3881 l-280 -167 -3 -1346 -2 -1346 -378 182 -377 182 0 942 c0
518 -3 942 -6 942 -3 0 -95 -49 -205 -109 l-199 -110 0 -1022 0 -1023 870
-503 c478 -277 875 -502 881 -501 6 2 281 228 612 503 l601 500 0 1025 0 1025
-601 495 c-330 272 -608 496 -617 497 -9 1 -142 -74 -296 -166z m974 -991
l251 -135 0 -686 0 -685 -252 -175 c-138 -95 -255 -175 -260 -177 -4 -2 -8
447 -8 998 0 577 4 1000 9 998 5 -1 122 -64 260 -138z"/>
</g>
</svg>
