<?xml version="1.0" standalone="no"?>
<!DOCTYPE svg PUBLIC "-//W3C//DTD SVG 20010904//EN"
 "http://www.w3.org/TR/2001/REC-SVG-20010904/DTD/svg10.dtd">
<svg version="1.0" xmlns="http://www.w3.org/2000/svg"
 width="405.000000pt" height="405.000000pt" viewBox="0 0 405.000000 405.000000"
 preserveAspectRatio="xMidYMid meet">
<metadata>
Created by potrace 1.14, written by Peter Selinger 2001-2017
</metadata>
<g transform="translate(0.000000,405.000000) scale(0.100000,-0.100000)"
fill="#000000" stroke="none">
<path d="M2275 4041 c-6 -5 -29 -20 -51 -33 -23 -12 -148 -86 -278 -162 l-236
-140 0 -1339 c0 -737 -1 -1341 -3 -1344 -2 -2 -89 38 -193 88 -311 150 -456
220 -511 245 l-53 24 0 940 c0 517 -3 940 -6 940 -6 0 -145 -74 -294 -157
l-105 -58 -2 -1015 -3 -1015 877 -507 876 -508 46 37 c25 21 52 43 59 50 7 7
34 29 60 50 26 21 49 40 52 43 3 3 50 43 105 89 55 46 109 90 120 100 35 29
259 215 284 236 13 11 29 25 35 30 6 6 49 42 96 80 47 38 87 72 90 75 3 3 32
27 65 55 33 27 62 52 65 55 3 3 25 21 50 41 25 20 55 45 67 56 l22 19 0 1015
1 1016 -108 88 c-157 130 -384 317 -407 337 -11 9 -65 53 -120 98 -124 102
-314 259 -465 384 -63 53 -117 96 -120 96 -4 0 -10 -4 -15 -9z m735 -1168
c107 -58 200 -109 205 -113 7 -6 10 -237 10 -692 l0 -683 -62 -45 c-34 -25
-98 -70 -142 -100 -45 -30 -134 -92 -199 -137 -64 -45 -119 -82 -122 -83 -4 0
-5 1982 -1 2013 1 4 27 -6 59 -24 31 -17 145 -79 252 -136z"/>
</g>
</svg>
